<svg xmlns="http://www.w3.org/2000/svg" xmlns:xlink="http://www.w3.org/1999/xlink" width="26" height="16" viewBox="0 0 26 16">
    <defs>
        <path id="zg0d4rynua" d="M40.438 22.129c1.198 0 2.224 1.027 2.224 2.395v5.134c0 1.283-1.026 2.31-2.31 2.31h-2.738c-.427 0-.684-.257-.684-.685 0-.427.342-.684.684-.684h2.738c.6 0 1.027-.513 1.027-1.027V24.44c0-.599-.513-1.027-1.027-1.027h-20.79c-.599 0-1.026.514-1.026 1.027v5.219c0 .599.513 1.026 1.026 1.026h2.225c.427 0 .684.257.684.685 0 .428-.342.684-.684.684h-2.14c-1.283 0-2.31-1.026-2.31-2.31V24.44c0-1.283 1.027-2.31 2.225-2.31h20.876zm-.6 3.422c0 .342-.256.685-.684.685H20.76c-.428 0-.684-.257-.684-.685 0-.428.342-.684.684-.684h18.394c.428 0 .685.342.685.684zm-4.02 1.283c.342.086.513.514.428.856-.172.428-.257 1.454-.257 2.481-.086 2.481-.171 5.818-2.139 7.529-.086.086-.257.171-.428.171H21.958c-.257 0-.514-.171-.6-.428-.085-.256 0-.513.172-.684 1.711-1.369 1.797-4.706 1.882-6.93 0-1.369.086-2.139.342-2.652.172-.343.514-.428.856-.257.342.171.428.513.257.856-.086.256-.171 1.283-.171 2.138-.086 2.054-.172 4.792-1.37 6.674h9.754c1.369-1.37 1.454-4.278 1.54-6.417.086-1.283.086-2.31.342-2.994.171-.343.514-.514.856-.343zm-6.16 2.738c-1.455 0-2.652-.94-2.738-2.139h5.476c0 1.198-1.198 2.14-2.738 2.14z"/>
    </defs>
    <g fill="none" fill-rule="evenodd" transform="translate(-17 -22)">
        <use fill="#54585A" xlink:href="#zg0d4rynua"/>
    </g>
</svg>
