<svg xmlns="http://www.w3.org/2000/svg" width="71" height="80" viewBox="0 0 71 80">
    <g fill="none" fill-rule="evenodd">
        <path fill="#54585A" fill-rule="nonzero" d="M35.2 12.8c-12.334 0-22.4 10.066-22.4 22.4-.016 1.154.59 2.227 1.587 2.81.997.581 2.23.581 3.226 0 .997-.583 1.603-1.656 1.587-2.81 0-8.876 7.124-16 16-16 8.876 0 16 7.124 16 16 0 5.867-1.358 9.16-2.862 12.169C46.833 50.378 44.8 53.333 44.8 57.6c0 5.34-4.26 9.6-9.6 9.6-1.154-.016-2.227.59-2.81 1.587-.581.997-.581 2.23 0 3.226.583.997 1.656 1.603 2.81 1.587 8.798 0 16-7.202 16-16 0-2.133 1.167-3.978 2.862-7.369 1.696-3.39 3.538-8.098 3.538-15.031 0-12.334-10.066-22.4-22.4-22.4zm0 12.8c-5.264 0-9.6 4.336-9.6 9.6-.016 1.154.59 2.227 1.587 2.81.997.581 2.23.581 3.226 0 .997-.583 1.603-1.656 1.587-2.81 0-1.808 1.392-3.2 3.2-3.2 1.808 0 3.2 1.392 3.2 3.2-.016 1.154.59 2.227 1.587 2.81.997.581 2.23.581 3.226 0 .997-.583 1.603-1.656 1.587-2.81 0-5.264-4.336-9.6-9.6-9.6zM32 44.8c-1.767 0-3.2 1.433-3.2 3.2 0 1.767 1.433 3.2 3.2 3.2 1.767 0 3.2-1.433 3.2-3.2 0-1.767-1.433-3.2-3.2-3.2zm-12.8 6.4c-.819 0-1.638.312-2.262.938-1.252 1.25-1.252 3.276 0 4.524l6.4 6.4c1.25 1.252 3.276 1.252 4.524 0 1.252-1.248 1.252-3.276 0-4.524l-6.4-6.4c-.625-.626-1.443-.938-2.262-.938zM12.8 64c-1.767 0-3.2 1.433-3.2 3.2 0 1.767 1.433 3.2 3.2 3.2 1.767 0 3.2-1.433 3.2-3.2 0-1.767-1.433-3.2-3.2-3.2zm-9.6 9.6c-1.767 0-3.2 1.433-3.2 3.2C0 78.567 1.433 80 3.2 80c1.767 0 3.2-1.433 3.2-3.2 0-1.767-1.433-3.2-3.2-3.2z"/>
        <path fill="#D12632" d="M35.2 0c-1.154-.016-2.227.59-2.81 1.587-.581.997-.581 2.23 0 3.226.583.997 1.656 1.603 2.81 1.587C51.144 6.4 64 19.256 64 35.2c-.016 1.154.59 2.227 1.587 2.81.997.581 2.23.581 3.226 0 .997-.583 1.603-1.656 1.587-2.81C70.4 15.797 54.603 0 35.2 0z"/>
    </g>
</svg>
