<svg xmlns="http://www.w3.org/2000/svg" width="80" height="80" viewBox="0 0 80 80">
    <g fill="none" fill-rule="evenodd">
        <path fill="#54585A" fill-rule="nonzero" d="M40 0C17.948 0 0 17.948 0 40s17.948 40 40 40 40-17.948 40-40c0-13.8-7.007-26-17.67-33.19l3.822-4.902L50 1.322l4.661 15.345 3.542-4.551c8.222 5.375 13.928 14.248 14.948 24.557C71.384 36.77 70.001 38.23 70 40c.001 1.777 1.396 3.24 3.17 3.327-1.556 15.781-14.062 28.287-29.843 29.844C43.24 71.396 41.777 70 40 70c-1.777.001-3.24 1.396-3.327 3.17C20.892 71.615 8.386 59.109 6.83 43.328 8.604 43.24 10 41.777 10 40c-.005-1.772-1.395-3.23-3.164-3.32 1.57-15.69 14.16-27.751 29.89-29.356.323 1.695 1.887 2.863 3.604 2.693 1.717-.171 3.02-1.625 3.003-3.35V3.333C43.333 1.493 41.841 0 40 0z"/>
        <path fill="#D12632" d="M29.212 29.147c-4.906 0-8.19 2.838-8.19 7.044v.085h4.922v-.098c0-1.743 1.256-2.975 3.073-2.975 1.743 0 2.89 1.038 2.89 2.591 0 1.244-.793 2.32-3.9 5.19l-6.679 6.282v3.593h16.074v-4.192h-8.906v-.274l3.483-3.216c3.75-3.34 5.13-5.417 5.13-7.76 0-3.734-3.167-6.27-7.897-6.27zM56.341 29.714v13.522h2.637v4.192H56.34v3.425h-5.084v-3.425H40.885V42.93c1.92-3.68 4.349-7.68 7.995-13.216h7.461zm-4.948 3.84h-.267c-1.803 2.78-3.225 5.183-5.599 9.61v.26h5.866v-9.87z"/>
    </g>
</svg>
