<svg xmlns="http://www.w3.org/2000/svg" width="23" height="22" viewBox="0 0 23 22">
    <g fill="none" fill-rule="evenodd" stroke="#D22630">
        <path d="M16.087 6.087c1.68 0 3.043-1.363 3.043-3.044C19.13 1.363 17.768 0 16.087 0c-1.68 0-3.044 1.362-3.044 3.043s1.363 3.044 3.044 3.044zM4.783 6.087c1.68 0 3.043-1.363 3.043-3.044C7.826 1.363 6.463 0 4.783 0 3.102 0 1.739 1.362 1.739 3.043s1.363 3.044 3.044 3.044zM9.13 14.946v2.88c0 .96-.779 1.739-1.739 1.739H2.174c-.96 0-1.74-.778-1.74-1.738V9.13c0-.961.78-1.74 1.74-1.74H7.39c.96 0 1.74.779 1.74 1.74v1.848M11.74 14.946v2.88c0 .96.778 1.739 1.738 1.739h5.218c.96 0 1.739-.778 1.739-1.738V9.13c0-.961-.78-1.74-1.74-1.74h-5.217c-.96 0-1.739.779-1.739 1.74v1.848M5.217 13.043L17.391 13.043" transform="translate(1.565 1)"/>
        <path d="M14.9 10L17.648 13.069 14.9 16.13" transform="translate(1.565 1)"/>
    </g>
</svg>
