<svg xmlns="http://www.w3.org/2000/svg" width="24" height="24" viewBox="0 0 24 24">
    <g fill="none" fill-rule="evenodd" stroke="#54585A" stroke-linecap="round" stroke-linejoin="round">
        <path d="M3.274 6.155h0c-1.061 0-1.92-.86-1.92-1.92h0c0-1.062.859-1.922 1.92-1.922h0c1.061 0 1.92.86 1.92 1.921h0c0 1.061-.859 1.92-1.92 1.92zM5.194 19.6h-2.88v-3.842H.392v-4.802c0-1.06.86-1.92 1.92-1.92h.96M18.639 6.155h0c1.061 0 1.92-.86 1.92-1.92h0c0-1.062-.859-1.922-1.92-1.922h0c-1.061 0-1.92.86-1.92 1.921h0c0 1.061.859 1.92 1.92 1.92zM16.718 19.6H19.6v-3.842h1.92v-4.802c0-1.06-.859-1.92-1.92-1.92h-.96M10.956 6.155h0c-1.59 0-2.88-1.29-2.88-2.881h0c0-1.591 1.29-2.881 2.88-2.881h0c1.592 0 2.881 1.29 2.881 2.88h0c0 1.592-1.29 2.882-2.88 2.882zM13.837 21.52H8.075v-5.762h-1.92v-4.802c0-1.06.86-1.92 1.92-1.92h5.762c1.061 0 1.92.86 1.92 1.92v5.762h-1.92v4.802z" transform="translate(1 1)"/>
    </g>
</svg>
