<svg xmlns="http://www.w3.org/2000/svg" width="59" height="78" viewBox="0 0 59 78">
    <g fill="none">
        <path fill="#54585A" d="M58.5 29.25C58.5 13.12 45.378 0 29.25 0 13.12 0 0 13.121 0 29.25c0 10.186 5.235 19.17 13.154 24.41v22.715c0 .627.361 1.198.928 1.467.222.106.46.158.697.158.367 0 .731-.124 1.027-.365L29.25 66.688l13.444 10.946c.486.397 1.158.477 1.724.207.567-.27.928-.841.927-1.469l-.024-22.696C53.254 48.439 58.5 39.446 58.5 29.25zM30.276 63.332c-.598-.487-1.455-.487-2.053 0l-11.818 9.623V55.524c3.88 1.904 8.24 2.976 12.845 2.976 4.597 0 8.949-1.068 12.823-2.965l.018 17.417-11.815-9.62zM29.25 55.25c-14.336 0-26-11.663-26-26 0-14.335 11.664-25.998 26-25.998s26 11.663 26 25.999c0 14.336-11.664 25.999-26 25.999z" transform="translate(0 .002)"/>
        <path fill="#D12632" d="M29.249 42.75c.514 0 .998-.242 1.304-.654l3.448-4.633 5.72-.66c.51-.06.963-.357 1.22-.802.258-.445.29-.985.086-1.457l-2.288-5.303 2.287-5.284c.204-.471.173-1.012-.083-1.457-.257-.445-.71-.743-1.22-.803l-5.736-.67-3.433-4.622c-.306-.413-.79-.656-1.304-.657-.514 0-.998.243-1.304.655l-3.448 4.633-5.72.66c-.51.06-.962.357-1.22.802-.257.445-.289.986-.085 1.458l2.288 5.302-2.287 5.284c-.204.472-.173 1.012.083 1.458.257.445.71.742 1.22.802l5.736.67 3.432 4.623c.306.412.79.656 1.304.656zm-3.662-8.425l-4.262-.498 1.698-3.922c.178-.412.178-.878 0-1.29l-1.7-3.94 4.246-.49c.445-.052.85-.285 1.117-.644l2.562-3.443 2.548 3.432c.267.36.671.593 1.116.645l4.263.498-1.698 3.922c-.178.411-.179.878-.001 1.29l1.7 3.94-4.245.49c-.446.051-.85.285-1.118.644l-2.562 3.443-2.548-3.432c-.267-.36-.671-.593-1.116-.645z" transform="translate(0 .002)"/>
    </g>
</svg>
