<svg xmlns="http://www.w3.org/2000/svg" width="21" height="22" viewBox="0 0 21 22">
    <g fill="none" fill-rule="evenodd" stroke="#54585A" stroke-linecap="round" stroke-linejoin="round" stroke-width="1.5">
        <path d="M15.111 9.778c1.227 0 2.222-.995 2.222-2.222 0-1.228-.995-2.223-2.222-2.223-1.227 0-2.222.995-2.222 2.223 0 1.227.995 2.222 2.222 2.222zM7.556 4.444c1.227 0 2.222-.994 2.222-2.222C9.778.995 8.783 0 7.556 0 6.328 0 5.333.995 5.333 2.222c0 1.228.995 2.222 2.223 2.222zM11.354 13.869h5.027c2.564 0 2.73 1.823 2.73 1.823L8.404 19.818c-.716.276-1.515.237-2.201-.107L0 16.604v-6.382h.91c1.006 0 3.555.4 4.55 1.824h2.73c2.01 0 3.64 1.632 3.64 3.646H5.46" transform="translate(1 1)"/>
    </g>
</svg>
