<svg xmlns="http://www.w3.org/2000/svg" width="22" height="22" viewBox="0 0 22 22">
    <g fill="none" fill-rule="evenodd" stroke="#54585A" stroke-linecap="round" stroke-linejoin="round">
        <path d="M.375 2.994v3.492c0 1.447 2.345 2.62 5.238 2.62 2.893 0 5.238-1.173 5.238-2.62V2.994" transform="translate(1 1)"/>
        <path d="M.375 6.486v3.492c0 1.447 2.345 2.62 5.238 2.62 1.342 0 2.565-.254 3.492-.669" transform="translate(1 1)"/>
        <path d="M.375 9.978v3.492c0 1.447 2.345 2.62 5.238 2.62 1.342 0 2.566-.253 3.492-.668M5.613 5.613c2.893 0 5.238-1.172 5.238-2.619 0-1.446-2.345-2.619-5.238-2.619C2.72.375.375 1.548.375 2.994c0 1.447 2.345 2.62 5.238 2.62zM9.105 9.978v3.492c0 1.447 2.345 2.62 5.238 2.62 2.893 0 5.238-1.173 5.238-2.62V9.978" transform="translate(1 1)"/>
        <path d="M9.105 13.47v3.492c0 1.447 2.345 2.62 5.238 2.62 2.893 0 5.238-1.173 5.238-2.62V13.47M14.343 12.597c2.893 0 5.238-1.172 5.238-2.619 0-1.446-2.345-2.619-5.238-2.619-2.893 0-5.238 1.173-5.238 2.62 0 1.446 2.345 2.618 5.238 2.618z" transform="translate(1 1)"/>
    </g>
</svg>
