<svg xmlns="http://www.w3.org/2000/svg" width="20" height="20" viewBox="0 0 20 20">
    <path fill="#D12632" d="M6.538 0C2.928 0 0 2.928 0 6.538c0 3.226 2.337 5.9 5.409 6.435.068-1.14.37-2.217.864-3.182-1.289-.28-2.09-1.027-2.377-2.18h-.762v-.766h.65c-.009-.099-.014-.198-.014-.307 0-.085.004-.171.009-.252h-.645v-.762h.75c.351-1.514 1.563-2.366 3.605-2.366.338 0 .681.036.888.086v1.325c-.234-.041-.5-.059-.851-.059-.92 0-1.573.357-1.893 1.014h2.393v.762H5.43c-.01.08-.015.167-.015.248 0 .108.005.212.018.311h2.591V7.5c1.323-1.207 3.045-1.977 4.948-2.091C12.436 2.338 9.764 0 6.538 0zm10.385 0l-2.308 2.308 2.308 2.307V3.077h2.308V1.538h-2.308V0zm-3.461 6.923c-3.611 0-6.539 2.928-6.539 6.539 0 3.61 2.928 6.538 6.539 6.538C17.072 20 20 17.072 20 13.462c0-3.611-2.928-6.539-6.538-6.539zm-7.795.688c.265.515.756.822 1.41.917.252-.327.527-.633.826-.917H5.667zm7.41 1.62h.77v.796c1.321.13 2.213.912 2.238 2.02h-1.543c-.036-.464-.478-.786-1.065-.786-.588 0-.974.278-.974.715 0 .359.291.568.983.704l.847.164c1.297.25 1.88.839 1.88 1.881 0 1.259-.89 2.05-2.367 2.173v.794h-.77v-.791c-1.441-.111-2.34-.858-2.365-2.026h1.592c.041.478.52.783 1.211.783.624 0 1.052-.3 1.052-.733 0-.364-.288-.56-1.038-.71l-.864-.174c-1.202-.227-1.821-.882-1.821-1.915 0-1.177.87-1.974 2.234-2.1V9.23zm-10 5.384v1.539H.769v1.538h2.308v1.539l2.308-2.308-2.308-2.308z"/>
</svg>
