<svg xmlns="http://www.w3.org/2000/svg" width="14" height="20" viewBox="0 0 14 20">
    <path fill="#54585A" d="M6.988 0c-.2.003-.39.084-.532.226L3.38 3.302c-.2.193-.282.48-.211.75.07.269.28.48.55.55.27.07.556-.01.749-.212l1.764-1.764v9.682c-.004.277.142.535.381.675.24.14.536.14.776 0s.385-.398.381-.675V2.626L9.533 4.39c.193.201.48.282.749.212.27-.07.48-.281.55-.55.07-.27-.01-.557-.211-.75L7.544.226C7.397.078 7.196-.003 6.988 0zM2.385 6.154C1.119 6.154.077 7.196.077 8.462v9.23C.077 18.958 1.119 20 2.385 20h9.23c1.266 0 2.308-1.042 2.308-2.308v-9.23c0-1.266-1.042-2.308-2.308-2.308h-1.538v1.538h1.538c.435 0 .77.335.77.77v9.23c0 .435-.335.77-.77.77h-9.23c-.435 0-.77-.335-.77-.77v-9.23c0-.435.335-.77.77-.77h1.538V6.154H2.385z"/>
</svg>
