<svg xmlns="http://www.w3.org/2000/svg" width="16" height="20" viewBox="0 0 16 20">
    <path fill="#54585A" d="M1.571 0C.782 0 .143.64.143 1.429V18.57c0 .79.64 1.429 1.428 1.429h10c.79 0 1.429-.64 1.429-1.429v-.714h-1.429v.714h-10V1.43h2.143l.296.295c.268.268.632.419 1.01.419h3.103c.378 0 .742-.15 1.01-.419l.296-.295h2.142v.714H13v-.714C13 .639 12.36 0 11.571 0h-10zM5.5.714h1.429c.197 0 .357.16.357.357 0 .198-.16.358-.357.358H5.5c-.197 0-.357-.16-.357-.358 0-.197.16-.357.357-.357zm2.857 0c.197 0 .357.16.357.357 0 .198-.16.358-.357.358-.197 0-.357-.16-.357-.358 0-.197.16-.357.357-.357zm4.332 3.174c-.304-.01-.581.175-.69.46-.108.284-.025.606.209.801 1.36 1.18 2.22 2.908 2.22 4.851s-.86 3.67-2.22 4.85c-.193.168-.282.426-.234.677.049.25.228.456.47.54.24.083.508.031.701-.136 1.658-1.44 2.712-3.565 2.712-5.931s-1.054-4.492-2.712-5.93c-.126-.113-.287-.177-.456-.182zm-2.06 2.027c-.303.006-.57.202-.665.49-.095.289.002.606.243.79.831.656 1.364 1.663 1.364 2.805 0 1.142-.533 2.149-1.364 2.804-.208.156-.315.412-.28.67.036.257.208.475.45.568.242.094.517.049.716-.118C12.252 13.01 13 11.59 13 10c0-1.59-.748-3.01-1.907-3.924-.13-.107-.295-.164-.463-.16zM8.604 7.981c-.344-.013-.648.221-.724.557-.076.335.098.677.414.813.249.112.421.353.421.649 0 .295-.173.537-.421.649-.234.104-.395.325-.421.58-.026.254.086.504.294.653.208.15.48.176.713.07.744-.336 1.264-1.088 1.264-1.952 0-.864-.52-1.617-1.264-1.952-.087-.04-.18-.063-.276-.067z"/>
</svg>
