<svg xmlns="http://www.w3.org/2000/svg" width="80" height="80" viewBox="0 0 80 80">
    <g fill="none" fill-rule="evenodd">
        <path fill="#54585A" fill-rule="nonzero" d="M68.281 33.253H56.655c-1.294 0-2.343 1.05-2.343 2.344 0 .306.06.597.166.865.344.866 1.189 1.479 2.177 1.479h11.626c3.877 0 7.031 3.154 7.031 7.03v23.31c0 3.877-3.154 7.031-7.03 7.031H41.784c-3.877 0-7.031-3.154-7.031-7.03V42.573c0-1.437 1.169-2.606 2.606-2.606h5.28c4.022 0 7.293-3.271 7.293-7.293V11.72C49.933 5.257 44.677 0 38.215 0H11.719C5.257 0 0 5.257 0 11.719v24.933c0 6.462 5.257 11.719 11.719 11.719h18.348v19.91C30.067 74.743 35.323 80 41.785 80h26.496C74.743 80 80 74.743 80 68.281v-23.31c0-6.46-5.257-11.718-11.719-11.718zm-38.214 10.43H11.719c-3.877 0-7.031-3.154-7.031-7.03V11.718c0-3.877 3.154-7.031 7.03-7.031h26.497c3.877 0 7.031 3.154 7.031 7.03v20.957c0 1.437-1.169 2.606-2.606 2.606h-5.28c-4.022 0-7.293 3.271-7.293 7.293v1.11z"/>
        <text fill="#D12632" font-family="TheSansArabic-Bold, TheSansArabic" font-size="28" font-weight="bold">
            <tspan x="16" y="31">A</tspan>
        </text>
        <text fill="#D12632" font-family="TheSansArabic-Bold, TheSansArabic" font-size="28" font-weight="bold">
            <tspan x="49" y="59">ع</tspan>
        </text>
    </g>
</svg>
